# xmcd CD database file
#
# Track frame offsets:
#	150
#	22707
#	47112
#	64012
#	79452
#	96472
#	114467
#	131005
#	148967
#	167245
#	183997
#	200325
#
# Disc length: 3560 seconds
#
# Revision: 1
# Processed by: cddbd v1.5.2PL0 Copyright (c) Steve Scherf et al.
# Submitted via: CDex 1.70beta3
#
DISCID=ac0de60c
DTITLE=陽あたり良好！ - 陽あたり良好！ オリジナル・ソング・ブック
DYEAR=1990
DGENRE=Anime
TTITLE0=尾崎亜美/悲しみはBEATに変えて ～Rise and Shine～
TTITLE1=芹澤廣明/帰って来た街角
TTITLE2=浅倉亜季/陽あたり良好
TTITLE3=新倉芳美/ともだち関係
TTITLE4=夢工場/177～雨は似合わない
TTITLE5=新倉芳美/風が走るスタジアム
TTITLE6=芹澤廣明/愛が眠る日まで -真夏のランナーⅡ-
TTITLE7=浅倉亜季/青い雨音
TTITLE8=夢工場/舌打ちのマリア
TTITLE9=芹澤廣明/ナイフの上の夏
TTITLE10=尾崎亜美/世界中の羊数えさせないで
TTITLE11=BGM集 (11テイク)
EXTD=YEAR: 1990
EXTT0=
EXTT1=
EXTT2=
EXTT3=
EXTT4=
EXTT5=
EXTT6=
EXTT7=
EXTT8=
EXTT9=
EXTT10=
EXTT11=
PLAYORDER=
